<?xml version="1.0" encoding="UTF-8" standalone="no"?>
<!-- Created with Inkscape (http://www.inkscape.org/) -->

<svg
   xmlns:dc="http://purl.org/dc/elements/1.1/"
   xmlns:cc="http://creativecommons.org/ns#"
   xmlns:rdf="http://www.w3.org/1999/02/22-rdf-syntax-ns#"
   xmlns:svg="http://www.w3.org/2000/svg"
   xmlns="http://www.w3.org/2000/svg"
   xmlns:xlink="http://www.w3.org/1999/xlink"
   xmlns:sodipodi="http://sodipodi.sourceforge.net/DTD/sodipodi-0.dtd"
   xmlns:inkscape="http://www.inkscape.org/namespaces/inkscape"
   id="svg2"
   sodipodi:version="0.32"
   inkscape:version="0.48.2 r9819"
   width="1280"
   height="800"
   version="1.0"
   sodipodi:docname="bg.svg"
   inkscape:output_extension="org.inkscape.output.svg.inkscape">
  <sodipodi:namedview
     inkscape:window-height="988"
     inkscape:window-width="1680"
     inkscape:pageshadow="2"
     inkscape:pageopacity="0.0"
     guidetolerance="10.0"
     gridtolerance="10.0"
     objecttolerance="10.0"
     borderopacity="1.0"
     bordercolor="#666666"
     pagecolor="#ffffff"
     id="base"
     showgrid="false"
     showguides="true"
     inkscape:guide-bbox="true"
     inkscape:zoom="1.1310946"
     inkscape:cx="527.20544"
     inkscape:cy="523.01171"
     inkscape:window-x="1272"
     inkscape:window-y="-8"
     inkscape:current-layer="svg2"
     inkscape:window-maximized="1">
    <inkscape:grid
       visible="true"
       enabled="true"
       id="grid9036"
       type="xygrid" />
  </sodipodi:namedview>
  <metadata
     id="metadata7">
    <rdf:RDF>
      <cc:Work
         rdf:about="">
        <dc:format>image/svg+xml</dc:format>
        <dc:type
           rdf:resource="http://purl.org/dc/dcmitype/StillImage" />
      </cc:Work>
    </rdf:RDF>
  </metadata>
  <defs
     id="defs5">
    <inkscape:perspective
       sodipodi:type="inkscape:persp3d"
       inkscape:vp_x="-50 : 600 : 1"
       inkscape:vp_y="0 : 1000 : 0"
       inkscape:vp_z="700 : 600 : 1"
       inkscape:persp3d-origin="300 : 400 : 1"
       id="perspective101" />
    <linearGradient
       id="linearGradient9066">
      <stop
         id="stop9068"
         offset="0"
         style="stop-color:#b6edfd;stop-opacity:1;" />
      <stop
         id="stop9070"
         offset="1"
         style="stop-color:#748b92;stop-opacity:1;" />
    </linearGradient>
    <radialGradient
       r="640"
       fy="-503.56891"
       fx="641.10065"
       cy="-503.56891"
       cx="641.10065"
       gradientTransform="matrix(1.0684864,0,0,0.8678154,-43.890141,837.711)"
       gradientUnits="userSpaceOnUse"
       id="radialGradient5597"
       xlink:href="#linearGradient3240"
       inkscape:collect="always" />
    <mask
       id="mask5593"
       maskUnits="userSpaceOnUse">
      <rect
         inkscape:export-ydpi="90"
         inkscape:export-xdpi="90"
         inkscape:export-filename="/home/pinheiro/photos/000000/winners/blac.png"
         style="opacity:1;fill:url(#radialGradient5597);fill-opacity:1;fill-rule:nonzero;stroke:none;stroke-width:2;stroke-linecap:round;stroke-linejoin:round;stroke-miterlimit:4;stroke-dasharray:none;stroke-dashoffset:0;stroke-opacity:1"
         id="rect5595"
         width="1280"
         height="800"
         x="1.1172047"
         y="0.70607889" />
    </mask>
    <linearGradient
       id="linearGradient5494"
       inkscape:collect="always">
      <stop
         id="stop5496"
         offset="0"
         style="stop-color:#1f1f1f;stop-opacity:1;" />
      <stop
         id="stop5498"
         offset="1"
         style="stop-color:#1f1f1f;stop-opacity:0;" />
    </linearGradient>
    <linearGradient
       inkscape:collect="always"
       id="linearGradient3361">
      <stop
         style="stop-color:#ffffff;stop-opacity:1;"
         offset="0"
         id="stop3363" />
      <stop
         style="stop-color:#ffffff;stop-opacity:0;"
         offset="1"
         id="stop3365" />
    </linearGradient>
    <linearGradient
       inkscape:collect="always"
       id="linearGradient3300">
      <stop
         style="stop-color:#ffffff;stop-opacity:1;"
         offset="0"
         id="stop3302" />
      <stop
         style="stop-color:#ffffff;stop-opacity:0;"
         offset="1"
         id="stop3304" />
    </linearGradient>
    <linearGradient
       inkscape:collect="always"
       id="linearGradient3240">
      <stop
         style="stop-color:#ffffff;stop-opacity:1;"
         offset="0"
         id="stop3242" />
      <stop
         style="stop-color:#ffffff;stop-opacity:0;"
         offset="1"
         id="stop3244" />
    </linearGradient>
    <linearGradient
       inkscape:collect="always"
       id="linearGradient3227">
      <stop
         style="stop-color:#ffffff;stop-opacity:1;"
         offset="0"
         id="stop3229" />
      <stop
         style="stop-color:#ffffff;stop-opacity:0;"
         offset="1"
         id="stop3231" />
    </linearGradient>
    <linearGradient
       id="linearGradient3159">
      <stop
         style="stop-color:#000000;stop-opacity:1;"
         offset="0"
         id="stop3161" />
      <stop
         style="stop-color:#aaaaaa;stop-opacity:1;"
         offset="1"
         id="stop3163" />
    </linearGradient>
    <linearGradient
       y2="950.41473"
       x2="774.4657"
       y1="740.40045"
       x1="774.4657"
       gradientTransform="translate(-0.979273,-0.9947999)"
       gradientUnits="userSpaceOnUse"
       id="linearGradient5660"
       xlink:href="#linearGradient3159"
       inkscape:collect="always" />
    <linearGradient
       y2="713.83942"
       x2="654.49023"
       y1="495.84497"
       x1="654.49023"
       gradientTransform="translate(-41,0)"
       gradientUnits="userSpaceOnUse"
       id="linearGradient5662"
       xlink:href="#linearGradient5494"
       inkscape:collect="always" />
    <radialGradient
       r="410.77905"
       fy="312.29956"
       fx="498.20294"
       cy="312.29956"
       cx="498.20294"
       gradientTransform="matrix(0.5015153,-0.156916,0.1664808,0.5320852,92.537643,311.16164)"
       gradientUnits="userSpaceOnUse"
       id="radialGradient5664"
       xlink:href="#linearGradient3227"
       inkscape:collect="always" />
    <radialGradient
       r="411.77905"
       fy="647.44019"
       fx="294.0603"
       cy="647.44019"
       cx="294.0603"
       gradientTransform="matrix(1,0,0,0.9912909,0.1006673,5.6385941)"
       gradientUnits="userSpaceOnUse"
       id="radialGradient5666"
       xlink:href="#linearGradient3240"
       inkscape:collect="always" />
    <linearGradient
       y2="339.8811"
       x2="325.3364"
       y1="301.1246"
       x1="325.3364"
       gradientTransform="translate(0.1006673,0)"
       gradientUnits="userSpaceOnUse"
       id="linearGradient5668"
       xlink:href="#linearGradient3240"
       inkscape:collect="always" />
    <radialGradient
       r="6.6199732"
       fy="247.923"
       fx="864.93866"
       cy="247.923"
       cx="864.93866"
       gradientTransform="matrix(2.2171964,-8.7461512e-6,5.171064e-6,1.3108925,-1052.8015,-77.069858)"
       gradientUnits="userSpaceOnUse"
       id="radialGradient5670"
       xlink:href="#linearGradient3300"
       inkscape:collect="always" />
    <linearGradient
       y2="343.60672"
       x2="325.3364"
       y1="314.15103"
       x1="325.3364"
       gradientTransform="matrix(0.6487722,0,0,0.6487722,658.64518,25.91787)"
       gradientUnits="userSpaceOnUse"
       id="linearGradient5672"
       xlink:href="#linearGradient3240"
       inkscape:collect="always" />
    <radialGradient
       r="381.45328"
       fy="339.92731"
       fx="998.43866"
       cy="339.92731"
       cx="998.43866"
       gradientTransform="matrix(1,0,0,0.9160553,0,19.589099)"
       gradientUnits="userSpaceOnUse"
       id="radialGradient5674"
       xlink:href="#linearGradient3361"
       inkscape:collect="always" />
    <radialGradient
       r="6.6199732"
       fy="247.923"
       fx="864.93866"
       cy="247.923"
       cx="864.93866"
       gradientTransform="matrix(2.2171964,-8.7461512e-6,5.171064e-6,1.3108925,-1052.8015,-77.069858)"
       gradientUnits="userSpaceOnUse"
       id="radialGradient5676"
       xlink:href="#linearGradient3300"
       inkscape:collect="always" />
    <linearGradient
       y2="343.60672"
       x2="325.3364"
       y1="314.15103"
       x1="325.3364"
       gradientTransform="matrix(0.5010405,0,0,0.5010405,684.75257,89.401488)"
       gradientUnits="userSpaceOnUse"
       id="linearGradient5678"
       xlink:href="#linearGradient3240"
       inkscape:collect="always" />
    <radialGradient
       r="6.6199732"
       fy="247.923"
       fx="864.93866"
       cy="247.923"
       cx="864.93866"
       gradientTransform="matrix(2.2171964,-8.7461512e-6,5.171064e-6,1.3108925,-1052.8015,-77.069858)"
       gradientUnits="userSpaceOnUse"
       id="radialGradient5680"
       xlink:href="#linearGradient3300"
       inkscape:collect="always" />
    <linearGradient
       y2="343.60672"
       x2="325.3364"
       y1="314.15103"
       x1="325.3364"
       gradientTransform="matrix(0.4391934,0,0,0.4391934,726.96153,97.56414)"
       gradientUnits="userSpaceOnUse"
       id="linearGradient5682"
       xlink:href="#linearGradient3240"
       inkscape:collect="always" />
    <radialGradient
       r="6.6199732"
       fy="247.923"
       fx="864.93866"
       cy="247.923"
       cx="864.93866"
       gradientTransform="matrix(2.2171964,-8.7461512e-6,5.171064e-6,1.3108925,-1052.8015,-77.069858)"
       gradientUnits="userSpaceOnUse"
       id="radialGradient5684"
       xlink:href="#linearGradient3300"
       inkscape:collect="always" />
    <linearGradient
       y2="343.60672"
       x2="325.3364"
       y1="314.15103"
       x1="325.3364"
       gradientTransform="matrix(0.6487722,0,0,0.6487722,650.64518,30.91787)"
       gradientUnits="userSpaceOnUse"
       id="linearGradient5686"
       xlink:href="#linearGradient3240"
       inkscape:collect="always" />
    <radialGradient
       r="6.6199732"
       fy="247.923"
       fx="864.93866"
       cy="247.923"
       cx="864.93866"
       gradientTransform="matrix(2.2171964,0,0,1.4748698,-1052.8002,-117.73117)"
       gradientUnits="userSpaceOnUse"
       id="radialGradient5688"
       xlink:href="#linearGradient3300"
       inkscape:collect="always" />
    <linearGradient
       y2="343.60672"
       x2="325.3364"
       y1="314.15103"
       x1="325.3364"
       gradientTransform="matrix(0.6487722,0,0,0.6487722,650.64518,30.91787)"
       gradientUnits="userSpaceOnUse"
       id="linearGradient5690"
       xlink:href="#linearGradient3240"
       inkscape:collect="always" />
    <radialGradient
       gradientUnits="userSpaceOnUse"
       gradientTransform="matrix(1.1781174,-2.8734396e-2,1.2424648e-2,0.5094137,-87.029377,554.02471)"
       r="34.801285"
       fy="-493.42346"
       fx="545.09064"
       cy="-493.42346"
       cx="545.09064"
       id="radialGradient9072"
       xlink:href="#linearGradient9066"
       inkscape:collect="always" />
    <linearGradient
       gradientUnits="userSpaceOnUse"
       y2="512.04498"
       x2="1256.6138"
       y1="512.04498"
       x1="1124.0671"
       gradientTransform="scale(0.9990401,1.0009608)"
       id="linearGradient6666">
      <stop
         id="stop6668"
         offset="0"
         style="stop-color:#a03700;stop-opacity:1;" />
      <stop
         id="stop6670"
         offset="1"
         style="stop-color:#8d0000;stop-opacity:1;" />
    </linearGradient>
    <radialGradient
       inkscape:collect="always"
       xlink:href="#linearGradient4391"
       id="radialGradient3617"
       gradientUnits="userSpaceOnUse"
       gradientTransform="matrix(1.3364993,-0.2573789,0.2883199,1.3880947,-482.56528,120.75736)"
       cx="1143.5531"
       cy="494.27905"
       fx="1130.7726"
       fy="468.10941"
       r="46.861942" />
    <linearGradient
       id="linearGradient4391">
      <stop
         id="stop4393"
         offset="0"
         style="stop-color:#ffff00;stop-opacity:1;" />
      <stop
         style="stop-color:#f9f500;stop-opacity:1;"
         offset="0.34460136"
         id="stop3486" />
      <stop
         style="stop-color:#f4eb00;stop-opacity:1;"
         offset="0.46399081"
         id="stop3484" />
      <stop
         style="stop-color:#ead700;stop-opacity:1;"
         offset="0.69395709"
         id="stop3482" />
      <stop
         id="stop4397"
         offset="1"
         style="stop-color:#d6af00;stop-opacity:1;" />
    </linearGradient>
    <linearGradient
       inkscape:collect="always"
       id="linearGradient3619">
      <stop
         style="stop-color:#9b0c0c;stop-opacity:1;"
         offset="0"
         id="stop3621" />
      <stop
         style="stop-color:#9b0c0c;stop-opacity:0;"
         offset="1"
         id="stop3623" />
    </linearGradient>
    <linearGradient
       y2="421.24744"
       x2="1188.6729"
       y1="564.87622"
       x1="1211.8433"
       gradientUnits="userSpaceOnUse"
       id="linearGradient10950"
       xlink:href="#linearGradient3619"
       inkscape:collect="always" />
    <linearGradient
       y2="512.04498"
       x2="1256.6138"
       y1="512.04498"
       x1="1124.0671"
       gradientTransform="scale(0.9990401,1.0009608)"
       gradientUnits="userSpaceOnUse"
       id="linearGradient10952"
       xlink:href="#linearGradient6666"
       inkscape:collect="always" />
    <filter
       id="filter7478"
       inkscape:collect="always">
      <feGaussianBlur
         id="feGaussianBlur7480"
         stdDeviation="1.56"
         inkscape:collect="always" />
    </filter>
  </defs>
  <g
     mask="url(#mask5593)"
     transform="translate(-1.047043,-0.7180799)"
     id="g5511">
    <path
       style="opacity:1;fill:url(#linearGradient5662);fill-opacity:1;fill-rule:evenodd;stroke:none;stroke-width:0.48531693;stroke-linecap:butt;stroke-linejoin:miter;stroke-miterlimit:4;stroke-dasharray:none;stroke-opacity:1"
       d="M 282.09375,0.9375 C 513.09418,90.680873 678.58468,304.98539 574.9375,584.75 C 513.65751,750.15709 278.44381,833.87717 133.4375,748.75 C 38.954122,693.28273 -14.946276,541.25024 43.625,447.375 C 83.860155,382.88802 169.66324,336.43062 253.375,387.71875 C 277.96197,402.78265 292.921,420.42956 301.09375,447.8125 C 309.26651,475.19536 309.38976,500.07253 291.71875,525.4375 C 281.50164,540.1031 270.0294,549.9775 252.8125,554.71875 C 235.5956,559.46003 218.74651,559.3241 203.3125,547.6875 C 195.02751,541.44097 189.48292,536.14795 186.96875,525.96875 C 184.45456,515.78961 184.68228,506.37696 191.9375,497.65625 C 195.46618,493.41484 199.7353,490.20361 205.28125,489.03125 C 210.82717,487.85892 215.77475,487.80312 220.21875,492 C 222.0982,493.77493 224.05397,496.09118 224.5,498.78125 C 224.61578,499.4796 224.65485,500.19605 224.625,500.875 C 224.9687,501.67716 225.23084,502.52581 225.375,503.40625 C 225.90172,501.85581 225.9876,500.18395 225.71875,498.5625 C 225.22335,495.57472 223.58668,492.72061 221.5,490.75 C 216.74264,486.25721 210.59209,485.2338 204.75,486.46875 C 198.9079,487.70373 193.33901,491.12962 189.625,495.59375 C 182.10391,504.63398 180.69438,515.8391 183.28125,526.3125 C 185.8681,536.7859 192.41773,546.57647 200.9375,553 C 216.69454,564.88018 235.61584,566.72802 253.125,561.90625 C 270.63418,557.08448 286.76895,545.62868 297.15625,530.71875 C 315.05366,505.02883 317.35321,474.86085 309.09375,447.1875 C 300.83431,419.51417 282.0251,394.30366 257.625,378.375 C 217.89485,352.43864 175.09814,344.63709 133.15625,357.40625 C 89.99395,370.54712 49.45576,407.13156 27.3125,443.34375 C 11.12247,469.82025 2.6770822,501.06715 1.09375,533.9375 L 1.09375,557.21875 C 5.106312,642.58727 52.424311,733.75109 128.3125,778.53125 C 143.50509,787.4961 159.05666,794.93402 174.84375,800.9375 L 394.78125,800.9375 C 479.84575,771.03322 555.30586,708.92527 600.84375,628.59375 C 629.87259,577.38516 646.7026,523.4177 652.90625,469.09375 C 653.2524,466.06234 653.53214,463.03337 653.8125,460 C 654.19142,455.90023 654.4901,451.82029 654.75,447.71875 C 655.63863,449.16832 656.52279,450.59571 657.4375,452.03125 C 658.56431,453.79967 659.70851,455.56601 660.875,457.3125 C 681.77915,488.61046 709.04316,516.35919 742.9375,538.5625 C 849.85272,608.59991 1007.5831,595.44509 1079.4062,481.53125 C 1127.3958,405.41829 1104.7551,286.60642 1035.6875,244.5625 C 1010.7303,229.37015 974.37,219.76402 943.8125,225.3125 C 914.11871,230.70427 890.4012,248.9257 874.25,277.3125 C 864.33071,294.7461 860.7786,316.08529 864.4375,335.625 C 868.0964,355.16476 878.98643,372.91123 898.03125,383 C 909.08453,388.85527 922.5768,390.81235 934.8125,388.25 C 947.04811,385.68771 958.0338,378.57753 963.9375,366.34375 C 967.12961,359.72897 968.05835,351.69409 966.34375,344.46875 C 964.62903,337.24343 960.263,330.85254 952.8125,327.6875 C 949.13328,326.12459 944.6523,325.75995 940.6875,326.84375 C 936.72272,327.9275 933.21605,330.47058 931.71875,334.71875 C 931.06213,336.58203 931.01865,338.85894 931.65625,340.84375 C 932.00233,341.92089 932.5643,342.90438 933.375,343.6875 C 933.18591,343.10318 933.07345,342.50549 933.03125,341.90625 C 932.79914,341.50003 932.5866,341.05766 932.4375,340.59375 C 931.86338,338.80671 932.346,336.77206 932.9375,335.09375 C 934.33612,331.12539 937.3611,329.62261 941.125,328.59375 C 944.8888,327.56486 948.53575,328.17131 952.03125,329.65625 C 959.21834,332.70951 962.3333,338.38388 964,345.40625 C 965.66663,352.42866 963.9166,357.41128 960.8125,363.84375 C 955.0297,375.82675 944.75045,381.23039 932.71875,383.75 C 920.68735,386.2696 910.55965,383.82187 899.6875,378.0625 C 880.88355,368.10136 873.12052,352.83457 869.5,333.5 C 865.87957,314.16527 869.47538,298.68184 879.78125,281.71875 C 914.87019,223.96417 982.0022,225.38543 1026.9375,252.1875 C 1092.3506,291.2039 1107.3036,401.17034 1066.9375,464.875 C 1004.9863,562.64437 834.62809,585.51035 745.03125,503.5625 C 691.13395,454.26647 660.68119,399.30681 648.90625,343.21875 C 625.17755,206.54059 540.25563,79.338974 420.78125,0.9375 L 282.09375,0.9375 z M 1039.6562,0.9375 C 1046.7981,16.170471 1051.5237,32.258874 1053.25,48.90625 C 1060.6938,120.68574 1023.4417,205.5377 930.8125,215.90625 C 903.60635,218.9516 882.1503,214.41127 860.0625,198.65625 C 837.97485,182.90134 823.38889,164.34012 821.84375,135.03125 C 820.95025,118.08517 823.76869,104.02728 833.90625,90.4375 C 844.04378,76.847654 856.77563,67.090065 875.125,66.8125 C 884.97494,66.66341 892.1819,67.400553 900,73.5625 C 907.81821,79.724675 913.16549,86.923268 912.8125,97.6875 C 912.64096,102.92303 911.28485,107.79459 907.8125,111.90625 C 904.34015,116.01777 900.68311,118.9292 894.90625,118.375 C 892.46326,118.14066 889.65256,117.59968 887.75,115.84375 C 887.25617,115.38808 886.81093,114.83868 886.4375,114.3125 C 885.71246,113.91178 884.9963,113.41937 884.375,112.84375 C 884.8843,114.31257 885.85331,115.62929 887,116.6875 C 889.11308,118.63772 891.9437,119.86474 894.65625,120.125 C 900.84032,120.71824 906.09224,117.86253 909.75,113.53125 C 913.40782,109.20013 915.53825,103.3855 915.71875,97.875 C 916.08463,86.71611 910.60663,77.465301 902.5625,71.125 C 894.5183,64.784859 883.94165,61.315584 873.8125,61.46875 C 855.0791,61.752283 839.77837,71.335735 829.46875,85.15625 C 819.15911,98.976802 813.77916,116.99045 814.6875,134.21875 C 815.51889,149.98859 820.40317,164.16136 828.125,176.34375 C 834.93834,187.09291 843.97401,196.31772 854.4375,203.78125 C 876.75953,219.70337 905.5548,227.66348 933.125,225.375 C 978.01709,221.64893 1014.5772,202.51963 1038.5625,168.5 C 1063.2455,133.4905 1072.3611,82.45067 1067.8438,42.40625 C 1066.2528,28.303713 1062.6717,14.396476 1057.375,0.9375 L 1039.6562,0.9375 z M 147.28125,91.125 C 136.39343,91.390347 125.38865,93.932031 114.71875,99.21875 C 101.53204,105.75261 90.20909,117.30724 84.03125,130.84375 C 77.853383,144.38027 76.86129,159.95293 84.75,174.125 C 88.645523,181.12352 95.3337,187.17972 102.9375,190.34375 C 110.54124,193.508 119.1868,193.75134 126.78125,188.875 C 130.11236,186.73603 132.97262,183.23609 134.40625,179.3125 C 135.18423,177.18338 135.56846,174.86093 135.25,172.625 C 134.83,173.7816 134.23294,174.93795 133.5625,175.9375 C 133.42977,176.86535 133.24129,177.802 132.90625,178.71875 C 131.61548,182.25149 128.31274,184.88614 125.3125,186.8125 C 118.21827,191.36771 111.56201,189.9724 104.34375,186.96875 C 97.125469,183.96501 92.10735,178.61807 88.40625,171.96875 C 80.796408,158.29789 82.9019,145.40631 88.90625,132.25 C 94.910561,119.09396 103.77042,113.35368 116.59375,107 C 140.48221,95.163627 163.43495,99.338156 185.5625,110.15625 C 207.69002,120.97436 220.64189,137.26492 230.75,159.75 C 248.23259,198.63841 241.71869,232.28073 223.65625,267.3125 C 205.59378,302.34454 180.9191,322.47792 143.75,336.625 C 91.371593,356.56095 42.768853,353.71254 1.09375,336.59375 L 1.09375,358.96875 C 47.178421,374.39326 96.958201,371.17052 147.0625,350.4375 C 184.19894,335.07068 216.08967,305.59112 234.34375,270.1875 C 242.90035,253.59199 248.4986,235.664 250.15625,217.25 C 252.03496,196.38072 248.87535,174.89299 239.46875,153.96875 C 229.19225,131.10933 210.25316,111.40791 187.75,100.40625 C 175.09196,94.217729 161.27988,90.78384 147.28125,91.125 z"
       id="path5620" />
    <path
       id="path5622"
       d="M 370.85067,240.25 C 344.61436,240.41906 318.72607,248.59876 296.50692,267.3125 C 281.45136,279.99283 269.58176,299.13274 265.31942,319.125 C 261.05707,339.11728 264.43751,360.00284 279.97567,375.96875 C 286.22319,382.3883 295.5498,387.49833 305.03817,389.03125 C 314.52654,390.56417 324.24135,388.47289 331.00692,380.4375 C 333.2046,377.82733 334.9873,373.92344 335.35067,370.0625 L 335.19442,370.0625 C 334.85393,373.68002 332.68192,377.5965 330.63192,380.03125 C 324.11365,387.7729 314.43794,389.52461 305.19442,388.03125 C 295.95088,386.53789 286.77939,381.53374 280.69442,375.28125 C 265.40909,359.57514 264.48405,338.84225 268.69442,319.09375 C 272.90481,299.34525 284.10145,282.52758 298.97567,270 C 331.02842,243.00408 367.12072,243.21125 404.53817,252.6875 C 441.9556,262.16374 470.51433,286.39841 493.35067,316.6875 C 537.47782,375.21578 540.58733,434.38856 522.06942,499.375 C 503.55152,564.36146 462.86592,614.25864 407.47567,652.5 C 343.90808,696.387 275.54697,710.10802 208.00692,702.5 C 249.8955,693.6632 287.91521,670.42708 311.25692,631.40625 C 323.79721,610.44239 330.22347,584.92459 329.25692,560.21875 C 329.22572,559.42177 329.1785,558.63889 329.13192,557.84375 C 328.91897,554.20883 328.54692,550.57622 328.00692,547 C 323.68693,518.39036 308.77182,492.20534 281.16317,477.21875 C 266.85051,469.44951 248.90772,466.41744 232.60067,469.375 C 216.29362,472.33255 201.61485,481.31058 193.88192,497.59375 C 190.27958,505.1792 189.03218,514.70346 190.91317,523.21875 C 192.79416,531.73402 197.80724,537.54966 206.66317,541 C 210.22392,542.38731 214.73971,542.70793 218.69442,541.625 C 222.64913,540.54206 224.86397,538.03481 226.06942,533.71875 C 226.46099,532.31675 226.45493,530.46942 225.91317,528.90625 L 225.85067,528.9375 C 226.35827,530.40215 226.21593,532.31722 225.85067,533.625 C 224.68926,537.78328 222.45333,540.16375 218.60067,541.21875 C 214.74801,542.2738 210.28752,541.94495 206.81942,540.59375 C 198.10757,537.19952 194.08372,531.03646 192.22567,522.625 C 190.36763,514.21357 191.76045,505.68158 195.31942,498.1875 C 202.98868,482.03837 217.02341,475.75106 233.22567,472.8125 C 249.42793,469.87394 264.8158,474.21728 279.03817,481.9375 C 306.52038,496.85545 318.17161,519.27701 322.47567,547.78125 C 326.77973,576.2855 319.81004,602.85778 305.06942,627.5 C 263.63333,696.76962 179.04864,700.92995 106.25692,675.4375 C 29.938373,643.75574 -41.312937,588.98582 -98.461833,525.125 L -116.61808,574.5 C 1.2687259,706.23219 200.29881,770.99609 363.38192,697.125 C 376.9979,695.11305 392.07224,692.87874 407.66317,690.84375 C 474.56855,683.4849 537.99347,694.53328 594.53817,731.53125 C 651.08286,768.52921 687.41754,815.30664 692.38192,888.4375 C 694.95106,926.28357 689.27327,963.27692 667.19442,994.9375 C 645.11555,1026.598 617.97196,1050.4203 576.06942,1051 C 556.62432,1051.269 537.11904,1045.8896 521.00692,1033.7188 C 495.71123,1015.2483 484.3522,984.17598 503.47567,957.6875 C 509.4849,950.50681 517.9489,945.50961 527.94442,947.09375 C 531.08809,947.59197 535.31864,949.11353 537.94442,951.625 L 538.03817,951.53125 C 535.23567,948.85072 531.31455,947.06537 527.94442,946.53125 C 517.56962,944.88697 508.89411,949.6917 502.72567,957.0625 C 481.75569,984.76476 494.61555,1014.7957 518.44442,1035.9062 C 534.75545,1048.2273 556.29352,1054.8973 575.97567,1054.625 C 618.2259,1054.0405 651.69157,1031.5216 673.91317,999.65625 C 696.13488,967.79092 707.15492,926.55519 704.56942,888.46875 C 699.58217,815.00139 658.32315,757.66603 601.56942,720.53125 C 594.47522,715.8894 587.13934,711.53346 579.60067,707.53125 C 577.95158,706.65579 576.2999,705.81315 574.63192,704.96875 C 523.26269,678.96284 463.13112,667.6954 406.53817,673.6875 C 410.01906,671.46324 413.4801,669.18269 416.91317,666.8125 C 464.03531,634.27943 502.49819,586.10936 524.44442,532.46875 C 525.15234,530.73839 525.83361,529.02268 526.50692,527.28125 C 529.58491,519.32043 532.30862,511.2471 534.63192,503.09375 C 553.21827,437.86706 546.83712,367.48507 502.50692,308.6875 C 479.5256,278.20613 444.19766,254.28754 406.53817,244.75 C 394.76958,241.76952 382.77626,240.17315 370.85067,240.25 z"
       style="opacity:0.52328766;fill:url(#radialGradient5664);fill-opacity:1;fill-rule:evenodd;stroke:none;stroke-width:1px;stroke-linecap:butt;stroke-linejoin:miter;stroke-opacity:1" />
    <path
       sodipodi:nodetypes="csssssccssssssssscsssssssssssccsssssssssccccsssssccsccsccsssssscssssssccsssc"
       id="path5624"
       d="M 370.85067,240.25 C 344.61436,240.41906 318.72607,248.59876 296.50692,267.3125 C 281.45136,279.99283 269.58176,299.13274 265.31942,319.125 C 261.05707,339.11728 264.43751,360.00284 279.97567,375.96875 C 286.22319,382.3883 295.5498,387.49833 305.03817,389.03125 C 314.52654,390.56417 324.24135,388.47289 331.00692,380.4375 C 333.2046,377.82733 334.9873,373.92344 335.35067,370.0625 L 335.19442,370.0625 C 334.85393,373.68002 332.68192,377.5965 330.63192,380.03125 C 324.11365,387.7729 314.43794,389.52461 305.19442,388.03125 C 295.95088,386.53789 286.77939,381.53374 280.69442,375.28125 C 265.40909,359.57514 264.48405,338.84225 268.69442,319.09375 C 272.90481,299.34525 284.10145,282.52758 298.97567,270 C 331.02842,243.00408 367.12072,243.21125 404.53817,252.6875 C 441.9556,262.16374 470.51433,286.39841 493.35067,316.6875 C 537.47782,375.21578 540.58733,434.38856 522.06942,499.375 C 503.55152,564.36146 462.86592,614.25864 407.47567,652.5 C 343.90808,696.387 275.54697,710.10802 208.00692,702.5 C 249.8955,693.6632 287.91521,670.42708 311.25692,631.40625 C 323.79721,610.44239 330.22347,584.92459 329.25692,560.21875 C 329.22572,559.42177 329.1785,558.63889 329.13192,557.84375 C 328.91897,554.20883 328.54692,550.57622 328.00692,547 C 323.68693,518.39036 308.77182,492.20534 281.16317,477.21875 C 266.85051,469.44951 248.90772,466.41744 232.60067,469.375 C 216.29362,472.33255 201.61485,481.31058 193.88192,497.59375 C 190.27958,505.1792 189.03218,514.70346 190.91317,523.21875 C 192.79416,531.73402 197.80724,537.54966 206.66317,541 C 210.22392,542.38731 214.73971,542.70793 218.69442,541.625 C 222.64913,540.54206 224.86397,538.03481 226.06942,533.71875 C 226.46099,532.31675 226.45493,530.46942 225.91317,528.90625 L 225.85067,528.9375 C 226.35827,530.40215 226.21593,532.31722 225.85067,533.625 C 224.68926,537.78328 222.45333,540.16375 218.60067,541.21875 C 214.74801,542.2738 210.28752,541.94495 206.81942,540.59375 C 198.10757,537.19952 194.08372,531.03646 192.22567,522.625 C 190.36763,514.21357 191.76045,505.68158 195.31942,498.1875 C 202.98868,482.03837 217.02341,475.75106 233.22567,472.8125 C 249.42793,469.87394 264.8158,474.21728 279.03817,481.9375 C 306.52038,496.85545 318.17161,519.27701 322.47567,547.78125 C 326.77973,576.2855 319.81004,602.85778 305.06942,627.5 C 263.63333,696.76962 179.04864,700.92995 106.25692,675.4375 C 29.938373,643.75574 -41.312937,588.98582 -98.461833,525.125 L -116.61808,574.5 C 1.2687259,706.23219 200.29881,770.99609 363.38192,697.125 C 375.41785,692.54546 391.1205,689.8132 407.44962,688.13881 C 474.39994,681.27376 537.99347,694.53328 594.53817,731.53125 C 651.08286,768.52921 687.41754,815.30664 692.38192,888.4375 C 694.95106,926.28357 689.27327,963.27692 667.19442,994.9375 C 645.11555,1026.598 617.97196,1050.4203 576.06942,1051 C 556.62432,1051.269 537.11904,1045.8895 521.00692,1033.7188 C 495.71123,1015.2483 484.3522,984.17598 503.47567,957.6875 C 509.4849,950.50681 517.9489,945.50961 527.94442,947.09375 C 531.08809,947.59197 535.31864,949.11353 537.94442,951.625 L 538.03817,951.53125 C 535.23567,948.85072 531.31455,947.06537 527.94442,946.53125 C 517.56962,944.88697 508.89411,949.6917 502.72567,957.0625 C 481.75569,984.76476 494.61555,1014.7958 518.44442,1035.9062 C 534.75545,1048.2273 556.29352,1054.8973 575.97567,1054.625 C 618.2259,1054.0405 651.69157,1031.5216 673.91317,999.65625 C 696.13488,967.79092 707.15492,926.55519 704.56942,888.46875 C 699.58217,815.00139 658.32315,757.66603 601.56942,720.53125 C 594.47522,715.8894 587.13934,711.53346 579.60067,707.53125 C 577.95158,706.65579 576.2999,705.81315 574.63192,704.96875 C 523.26269,678.96284 463.13112,667.6954 406.53817,673.6875 C 410.01906,671.46324 413.4801,669.18269 416.91317,666.8125 C 464.03531,634.27943 502.49819,586.10936 524.44442,532.46875 C 525.15234,530.73839 525.83361,529.02268 526.50692,527.28125 C 529.58491,519.32043 532.30862,511.2471 534.63192,503.09375 C 553.21827,437.86706 546.83712,367.48507 502.50692,308.6875 C 479.5256,278.20613 444.19766,254.28754 406.53817,244.75 C 394.76958,241.76952 382.77626,240.17315 370.85067,240.25 z M 323.25692,323.65625 C 315.55554,323.65625 309.31943,329.89237 309.31942,337.59375 C 309.31942,345.29513 315.55554,351.56249 323.25692,351.5625 C 330.9583,351.5625 337.22566,345.29513 337.22567,337.59375 C 337.22567,329.89237 330.9583,323.65626 323.25692,323.65625 z"
       style="opacity:0.52328766;fill:url(#radialGradient5666);fill-opacity:1;fill-rule:nonzero;stroke:none;stroke-width:0.40000001;stroke-linecap:round;stroke-linejoin:round;stroke-miterlimit:4;stroke-dasharray:none;stroke-dashoffset:0;stroke-opacity:1" />
    <path
       sodipodi:nodetypes="csssc"
       id="path5626"
       d="M 334.54842,331.56849 C 334.54842,334.51362 329.46914,336.90386 323.21076,336.90386 C 316.95238,336.90386 311.87311,334.51362 311.87311,331.56849 C 311.87311,328.62337 316.95238,323.93313 323.21076,323.93313 C 329.46914,323.93313 334.54842,328.62337 334.54842,331.56849 z"
       style="opacity:0.52328766;fill:url(#linearGradient5668);fill-opacity:1;fill-rule:nonzero;stroke:none;stroke-width:0.30000001;stroke-linecap:round;stroke-linejoin:round;stroke-miterlimit:4;stroke-dashoffset:0;stroke-opacity:1" />
    <g
       transform="translate(6.7241193,-0.8716451)"
       id="g5628">
      <path
         transform="matrix(1.4546695,0,0,1.4546695,-389.92985,-105.85644)"
         d="m 871.55863,241.15303 c 0,3.65611 -2.96386,6.61997 -6.61997,6.61997 -3.65611,0 -6.61997,-2.96386 -6.61997,-6.61997 0,-3.65611 2.96386,-6.61997 6.61997,-6.61997 3.65611,0 6.61997,2.96386 6.61997,6.61997 z"
         sodipodi:ry="6.6199732"
         sodipodi:rx="6.6199732"
         sodipodi:cy="241.15303"
         sodipodi:cx="864.93866"
         id="path5630"
         style="opacity:0.52328766;fill:url(#radialGradient5670);fill-opacity:1;fill-rule:nonzero;stroke:none;stroke-width:0.30000001;stroke-linecap:round;stroke-linejoin:round;stroke-miterlimit:4;stroke-dasharray:none;stroke-dashoffset:0;stroke-opacity:1"
         sodipodi:type="arc" />
      <path
         sodipodi:nodetypes="csssc"
         id="path5632"
         d="M 875.62559,241.0303 C 875.62559,242.94102 872.33029,244.49174 868.27003,244.49174 C 864.20977,244.49174 860.91448,242.94102 860.91448,241.0303 C 860.91448,239.11959 864.20977,236.07669 868.27003,236.07669 C 872.33029,236.07669 875.62559,239.11959 875.62559,241.0303 z"
         style="opacity:0.52328766;fill:url(#linearGradient5672);fill-opacity:1;fill-rule:nonzero;stroke:none;stroke-width:0.30000001;stroke-linecap:round;stroke-linejoin:round;stroke-miterlimit:4;stroke-dashoffset:0;stroke-opacity:1" />
    </g>
    <path
       id="path5634"
       d="M 942.59814,-115.875 C 940.08734,-115.8771 937.58114,-115.86456 935.06694,-115.8125 C 890.01162,-114.87962 844.43777,-105.21516 800.19191,-85.3125 C 660.62419,-22.532207 572.27995,145.12107 640.97316,291 C 686.87138,388.47081 821.38573,442.14959 908.31691,399.53125 C 939.72904,384.13135 972.85424,353.66496 986.94194,319.25 C 1000.6312,285.80811 997.52904,250.08947 979.28564,215.5 C 968.08154,194.25703 948.80084,176.89624 926.72314,168 C 904.64543,159.10376 879.73781,158.68526 857.28566,171.40625 C 844.25489,178.78926 833.58278,191.15656 828.28566,205.15625 C 822.98854,219.15594 823.08613,234.81603 831.62941,248.65625 C 836.24872,256.1396 843.76377,262.26296 852.16066,265.1875 C 860.55755,268.11204 869.85368,267.82392 877.84816,262.34375 C 881.79592,259.63758 885.04378,255.32474 886.50441,250.625 C 887.96504,245.92526 887.6085,240.77924 884.28566,236.53125 C 882.82819,234.66798 880.60588,233.13524 878.19191,232.5 C 876.88186,232.15526 875.5046,232.09268 874.19191,232.40625 C 874.90341,232.59195 875.59117,232.87529 876.22316,233.21875 C 876.7826,233.24621 877.34643,233.32027 877.91066,233.46875 C 880.0841,234.04069 881.84793,235.82177 883.16066,237.5 C 886.26463,241.46819 885.82849,245.53851 884.44191,250 C 883.05533,254.46149 880.09893,257.71012 876.34816,260.28125 C 868.63628,265.5677 860.88417,265.02989 852.72316,262.1875 C 844.56214,259.34512 840.65268,254.40214 836.16066,247.125 C 827.79253,233.56851 828.98321,219.7035 834.19191,205.9375 C 839.4006,192.17151 848.37464,183.54329 861.19191,176.28125 C 883.36007,163.72117 903.75219,165.7284 925.59814,174.53125 C 947.44414,183.3341 960.77434,196.91988 971.25444,218.25 C 1006.9361,290.8731 962.25484,357.72985 906.25441,385.8125 C 824.73326,426.69308 704.10366,370.87637 665.81691,289.09375 C 607.05715,163.57965 693.76142,-23.059264 834.19191,-60.6875 C 1075.0362,-125.22154 1239.4615,32.185936 1293.1606,232.59375 L 1338.4731,205.53125 C 1332.5817,183.37446 1325.0666,161.64146 1315.9731,140.59375 C 1251.4923,-8.6524566 1100.7782,-115.74244 942.59814,-115.875 z M 1110.9106,233.96875 C 1095.6724,233.91964 1080.5282,237.12335 1066.2543,242.875 C 1035.8034,255.14518 1009.2076,279.07551 993.75444,308.375 C 968.59214,356.08274 964.34204,405.34387 983.22314,451.46875 C 1002.6536,498.93579 1048.3042,540.97834 1091.6293,562.21875 C 1176.9803,604.06251 1295.5897,578.57797 1379.6919,511.9375 L 1379.6919,474.9375 C 1306.1707,549.00233 1183.445,587.92944 1094.4731,543.3125 C 1017.2341,504.57937 955.60264,412.32207 1004.8169,312.15625 C 1019.2716,282.73659 1037.6856,264.01638 1067.8169,251.875 C 1097.948,239.73363 1126.054,236.95769 1156.6293,254.28125 C 1174.3078,264.29746 1186.664,276.20068 1193.8481,295.1875 C 1201.0322,314.17435 1202.7025,333.30212 1191.1606,352 C 1184.965,362.03705 1179.5729,368.86087 1168.3169,372.78125 C 1157.0607,376.70165 1146.3595,377.44761 1135.7231,370.15625 C 1130.5497,366.61003 1126.5106,362.09103 1124.5981,355.9375 C 1122.6857,349.78399 1122.0669,344.22315 1126.3481,338.75 C 1128.1586,336.43531 1130.569,333.94511 1133.5669,333.15625 C 1134.3449,332.95148 1135.139,332.85039 1135.9106,332.8125 C 1136.7822,332.3388 1137.7418,331.94364 1138.7231,331.6875 C 1136.9126,331.25503 1134.9987,331.36827 1133.1919,331.84375 C 1129.8623,332.71993 1126.7959,334.80508 1124.7856,337.375 C 1120.2026,343.23408 1119.7084,350.3616 1121.7231,356.84375 C 1123.7376,363.32591 1128.2155,369.26749 1133.6606,373 C 1144.687,380.55857 1157.5166,380.93994 1169.0981,376.90625 C 1180.6796,372.87258 1191.0393,364.44645 1197.4106,354.125 C 1209.1939,335.03582 1209.3417,313.43416 1202.0356,294.125 C 1194.7296,274.81587 1180.0084,257.74554 1162.0356,247.5625 C 1145.5843,238.24145 1128.1806,234.0244 1110.9106,233.96875 z"
       style="opacity:0.43835617;fill:url(#radialGradient5674);fill-opacity:1;fill-rule:evenodd;stroke:none;stroke-width:0.40000001;stroke-linecap:butt;stroke-linejoin:miter;stroke-miterlimit:4;stroke-dasharray:none;stroke-opacity:1" />
    <g
       transform="matrix(1.6542097,0,0,1.6542097,-263.20439,-82.262472)"
       id="g5636">
      <path
         sodipodi:type="arc"
         style="opacity:0.52328766;fill:url(#radialGradient5676);fill-opacity:1;fill-rule:nonzero;stroke:none;stroke-width:0.30000001;stroke-linecap:round;stroke-linejoin:round;stroke-miterlimit:4;stroke-dasharray:none;stroke-dashoffset:0;stroke-opacity:1"
         id="path5638"
         sodipodi:cx="864.93866"
         sodipodi:cy="241.15303"
         sodipodi:rx="6.6199732"
         sodipodi:ry="6.6199732"
         d="m 871.55863,241.15303 c 0,3.65611 -2.96386,6.61997 -6.61997,6.61997 -3.65611,0 -6.61997,-2.96386 -6.61997,-6.61997 0,-3.65611 2.96386,-6.61997 6.61997,-6.61997 3.65611,0 6.61997,2.96386 6.61997,6.61997 z"
         transform="matrix(1.1330519,0,0,1.1330519,-133.37657,-14.355154)" />
      <path
         style="opacity:0.52328766;fill:url(#linearGradient5678);fill-opacity:1;fill-rule:nonzero;stroke:none;stroke-width:0.30000001;stroke-linecap:round;stroke-linejoin:round;stroke-miterlimit:4;stroke-dashoffset:0;stroke-opacity:1"
         d="M 852.32442,255.5307 C 852.32442,257.00633 849.77949,258.20393 846.64379,258.20393 C 843.50809,258.20393 840.96317,257.00633 840.96317,255.5307 C 840.96317,254.05508 843.50809,251.70508 846.64379,251.70508 C 849.77949,251.70508 852.32442,254.05508 852.32442,255.5307 z"
         id="path5640"
         sodipodi:nodetypes="csssc" />
    </g>
    <g
       id="g5642"
       transform="matrix(1.5563435,0,0,1.5563435,-409.62119,-44.293074)">
      <path
         sodipodi:type="arc"
         style="opacity:0.52328766;fill:url(#radialGradient5680);fill-opacity:1;fill-rule:nonzero;stroke:none;stroke-width:0.30000001;stroke-linecap:round;stroke-linejoin:round;stroke-miterlimit:4;stroke-dasharray:none;stroke-dashoffset:0;stroke-opacity:1"
         id="path5644"
         sodipodi:cx="864.93866"
         sodipodi:cy="241.15303"
         sodipodi:rx="6.6199732"
         sodipodi:ry="6.6199732"
         d="m 871.55863,241.15303 c 0,3.65611 -2.96386,6.61997 -6.61997,6.61997 -3.65611,0 -6.61997,-2.96386 -6.61997,-6.61997 0,-3.65611 2.96386,-6.61997 6.61997,-6.61997 3.65611,0 6.61997,2.96386 6.61997,6.61997 z"
         transform="matrix(1.0273675,0,0,1.0273675,-19.627312,-1.3188803)" />
      <path
         style="opacity:0.52328766;fill:url(#linearGradient5682);fill-opacity:1;fill-rule:nonzero;stroke:none;stroke-width:0.30000001;stroke-linecap:round;stroke-linejoin:round;stroke-miterlimit:4;stroke-dashoffset:0;stroke-opacity:1"
         d="M 873.84879,243.18686 C 873.84879,244.48034 871.618,245.53012 868.86936,245.53012 C 866.12072,245.53012 863.88994,244.48034 863.88994,243.18686 C 863.88994,241.89338 866.12072,239.83345 868.86936,239.83345 C 871.618,239.83345 873.84879,241.89338 873.84879,243.18686 z"
         id="path5646"
         sodipodi:nodetypes="csssc" />
    </g>
    <g
       id="g5648"
       transform="matrix(0.8674211,0,0,0.8674211,-531.42337,301.56771)">
      <path
         transform="matrix(1.4546695,0,0,1.4546695,-397.92985,-100.85644)"
         d="m 871.55863,241.15303 c 0,3.65611 -2.96386,6.61997 -6.61997,6.61997 -3.65611,0 -6.61997,-2.96386 -6.61997,-6.61997 0,-3.65611 2.96386,-6.61997 6.61997,-6.61997 3.65611,0 6.61997,2.96386 6.61997,6.61997 z"
         sodipodi:ry="6.6199732"
         sodipodi:rx="6.6199732"
         sodipodi:cy="241.15303"
         sodipodi:cx="864.93866"
         id="path5650"
         style="opacity:0.52328766;fill:url(#radialGradient5684);fill-opacity:1;fill-rule:nonzero;stroke:none;stroke-width:0.30000001;stroke-linecap:round;stroke-linejoin:round;stroke-miterlimit:4;stroke-dasharray:none;stroke-dashoffset:0;stroke-opacity:1"
         sodipodi:type="arc" />
      <path
         sodipodi:nodetypes="csssc"
         id="path5652"
         d="M 867.62559,246.0303 C 867.62559,247.94102 864.33029,249.49174 860.27003,249.49174 C 856.20977,249.49174 852.91448,247.94102 852.91448,246.0303 C 852.91448,244.11959 856.20977,241.07669 860.27003,241.07669 C 864.33029,241.07669 867.62559,244.11959 867.62559,246.0303 z"
         style="opacity:0.52328766;fill:url(#linearGradient5686);fill-opacity:1;fill-rule:nonzero;stroke:none;stroke-width:0.30000001;stroke-linecap:round;stroke-linejoin:round;stroke-miterlimit:4;stroke-dashoffset:0;stroke-opacity:1" />
    </g>
    <g
       transform="matrix(0.8674211,0,0,0.8674211,-205.28814,464.28309)"
       id="g5654">
      <path
         sodipodi:type="arc"
         style="opacity:0.52328766;fill:url(#radialGradient5688);fill-opacity:1;fill-rule:nonzero;stroke:none;stroke-width:0.30000001;stroke-linecap:round;stroke-linejoin:round;stroke-miterlimit:4;stroke-dasharray:none;stroke-dashoffset:0;stroke-opacity:1"
         id="path5656"
         sodipodi:cx="864.93866"
         sodipodi:cy="241.15303"
         sodipodi:rx="6.6199732"
         sodipodi:ry="6.6199732"
         d="m 871.55863,241.15303 c 0,3.65611 -2.96386,6.61997 -6.61997,6.61997 -3.65611,0 -6.61997,-2.96386 -6.61997,-6.61997 0,-3.65611 2.96386,-6.61997 6.61997,-6.61997 3.65611,0 6.61997,2.96386 6.61997,6.61997 z"
         transform="matrix(1.4546695,0,0,1.4546695,-397.92985,-100.85644)" />
      <path
         style="opacity:0.52328766;fill:url(#linearGradient5690);fill-opacity:1;fill-rule:nonzero;stroke:none;stroke-width:0.30000001;stroke-linecap:round;stroke-linejoin:round;stroke-miterlimit:4;stroke-dashoffset:0;stroke-opacity:1"
         d="M 867.62559,246.0303 C 867.62559,247.94102 864.33029,249.49174 860.27003,249.49174 C 856.20977,249.49174 852.91448,247.94102 852.91448,246.0303 C 852.91448,244.11959 856.20977,241.07669 860.27003,241.07669 C 864.33029,241.07669 867.62559,244.11959 867.62559,246.0303 z"
         id="path5658"
         sodipodi:nodetypes="csssc" />
    </g>
  </g>
  <g
     transform="matrix(1.0548602,0,0,1.0548602,-33.28293,770.75801)"
     id="g5728"
     style="stroke:none" />
  <g
     transform="translate(1262.021,117.71421)"
     style="display:inline"
     inkscape:label="box"
     id="layer4" />
  <g
     transform="translate(1262.021,117.71421)"
     style="display:inline"
     inkscape:label="zip_app"
     id="layer5" />
  <rect
     y="56.181572"
     x="1175.5515"
     height="0"
     width="1"
     id="rect1327"
     style="opacity:0.57786889;fill:#ffffff;fill-opacity:1;fill-rule:nonzero;stroke:none;stroke-width:3.63199997;stroke-linecap:round;stroke-linejoin:round;stroke-miterlimit:4;stroke-dasharray:none;stroke-dashoffset:4;stroke-opacity:1" />
  <rect
     y="28.653923"
     x="1140.4248"
     height="0"
     width="1"
     id="rect2482"
     style="opacity:0.57786889;fill:#ffffff;fill-opacity:1;fill-rule:nonzero;stroke:none;stroke-width:3.63199997;stroke-linecap:round;stroke-linejoin:round;stroke-miterlimit:4;stroke-dasharray:none;stroke-dashoffset:4;stroke-opacity:1" />
  <g
     id="g4640"
     transform="matrix(-0.782995,0,0,0.650879,-1341.371,641.95551)"
     style="opacity:0.40163933" />
  <g
     style="opacity:0.40163933"
     transform="matrix(-0.782995,0,0,0.650879,-1341.371,641.95551)"
     id="g4646" />
  <g
     style="opacity:0.40163933"
     transform="matrix(1,0,0,0.650879,1859.5918,649.28331)"
     id="g4730" />
  <g
     id="g4748"
     transform="matrix(1,0,0,0.650879,1859.5918,649.28331)"
     style="opacity:0.40163933" />
</svg>
