<?xml version="1.0" encoding="UTF-8" standalone="no"?>
<!-- Created with Inkscape (http://www.inkscape.org/) -->
<svg xmlns:rdf="http://www.w3.org/1999/02/22-rdf-syntax-ns#" xmlns="http://www.w3.org/2000/svg" height="90" width="160" version="1.1" xmlns:cc="http://creativecommons.org/ns#" xmlns:dc="http://purl.org/dc/elements/1.1/">
 <defs></defs>
 <metadata>
  <rdf:RDF>
   <cc:Work rdf:about="">
    <dc:format>image/svg+xml</dc:format>
    <dc:type rdf:resource="http://purl.org/dc/dcmitype/StillImage"/>
    <dc:title/>
   </cc:Work>
  </rdf:RDF>
 </metadata>
 <g transform="translate(0,-962.36218)">
  <g style="letter-spacing:0px;word-spacing:0px;" font-weight="normal" transform="translate(-14.25,-1.5)" font-stretch="normal" line-height="125%" font-size="144px" font-variant="normal" font-family="Serif" font-style="normal" fill="#FFF">
   <path d="m38.672,1018.7c-0.000004-3.312,0.4801-6.204,1.4403-8.6759s2.2324-4.5238,3.8167-6.1557c1.5842-1.6318,3.4083-2.8556,5.4723-3.6716,2.0639-0.81586,4.1755-1.2238,6.3347-1.2239,5.0405,0.00004,8.9048,1.5719,11.593,4.7154,2.688,3.1436,4.0319,7.9314,4.032,14.364-0.000037,0.2886-0.000037,0.6607,0,1.1162-0.000037,0.4556-0.02421,0.876-0.07251,1.2612h-25.631c0.2871,3.8877,1.4147,6.8394,3.3827,8.855s5.0401,3.0235,9.2164,3.0235c2.3525,0,4.3326-0.204,5.9403-0.612,1.6076-0.4079,2.8194-0.8038,3.6354-1.1876l0.93604,5.6162c-0.81595,0.4321-2.2438,0.8881-4.2836,1.3678s-4.3561,0.7196-6.9489,0.7196c-3.2637,0-6.0835-0.4918-8.4595-1.4755-2.376-0.9836-4.3319-2.3397-5.8678-4.0682s-2.6759-3.7807-3.42-6.1567c-0.74414-2.376-1.1162-4.9798-1.1162-7.8113zm25.704-3.6716c0.04831-3.0235-0.70755-5.5075-2.2676-7.4521-1.5601-1.9445-3.7083-2.9168-6.4446-2.9168-1.5352,0-2.8909,0.3003-4.0671,0.9008-1.1763,0.6007-2.1724,1.3807-2.9883,2.3401-0.81593,0.9595-1.4517,2.0633-1.9072,3.3113-0.45558,1.2481-0.75587,2.5203-0.90088,3.8167z"/>
   <path d="m106.97,1018.7c-0.00004-4.3682-1.08-7.7281-3.2399-10.08-2.1599-2.3517-5.0402-3.5276-8.6408-3.5277-2.0156,0.0001-3.5874,0.072-4.7153,0.2165-1.1279,0.1443-2.0281,0.3124-2.7004,0.5042v23.616c0.8159,0.6709,1.9918,1.3184,3.5277,1.9424s3.2157,0.9361,5.0394,0.9361c1.9204,0,3.5647-0.3479,4.9329-1.0437,1.3681-0.6958,2.484-1.6557,3.3475-2.8796,0.8635-1.2238,1.4875-2.6638,1.8721-4.3198,0.38449-1.656,0.57675-3.4442,0.57679-5.3646zm6.9829,0c-0.00004,2.8315-0.37211,5.4474-1.1162,7.8475-0.74417,2.4002-1.8362,4.4641-3.2761,6.1919-1.44,1.7278-3.204,3.0718-5.2921,4.032-2.0882,0.9602-4.4762,1.4403-7.1642,1.4403-2.1592,0-4.0668-0.2878-5.7228-0.8635s-2.892-1.1279-3.7079-1.6568v14.977h-6.6973v-49.608c1.585-0.3837,3.5654-0.8038,5.9414-1.2601,2.376-0.45626,5.124-0.68441,8.2441-0.68445,2.8799,0.00004,5.4719,0.45597,7.7761,1.3678,2.3042,0.9119,4.2722,2.2079,5.9041,3.888,1.6318,1.6802,2.8916,3.7325,3.7793,6.1568,0.88766,2.4243,1.3315,5.1482,1.3316,8.1716z"/>
   <path d="m130.14,1001.6c0.8159-0.5273,2.0519-1.0792,3.7079-1.6556,1.656-0.57637,3.5636-0.86458,5.7228-0.86462,2.688,0.00004,5.076,0.48014,7.1642,1.4404,2.0881,0.9602,3.8521,2.3042,5.2921,4.0319,1.4399,1.7279,2.532,3.7918,3.2761,6.1919,0.74411,2.4002,1.1162,5.0402,1.1162,7.9201-0.00004,3.0249-0.44389,5.7491-1.3316,8.1727-0.88773,2.4236-2.1475,4.4755-3.7793,6.1556-1.6319,1.6802-3.5999,2.9762-5.9041,3.8881s-4.8963,1.3678-7.7761,1.3678c-3.1201,0-5.8803-0.2161-8.2804-0.6482-2.4002-0.4321-4.3685-0.8642-5.9052-1.2964v-53.64l6.6973-1.1514zm0,29.953c0.67235,0.1919,1.6205,0.3717,2.8444,0.5395,1.2239,0.1677,2.7477,0.2516,4.5714,0.2516,3.6006,0,6.4808-1.188,8.6408-3.564,2.1599-2.376,3.2398-5.748,3.2399-10.116-0.00004-1.9189-0.1923-3.7185-0.57679-5.3987-0.38455-1.6802-1.0086-3.1322-1.8721-4.3561-0.86355-1.2238-1.9794-2.184-3.3475-2.8806-1.3682-0.6965-3.0125-1.0448-4.9329-1.0448-1.8238,0-3.5036,0.312-5.0394,0.936-1.5359,0.6241-2.7118,1.2723-3.5277,1.9446z"/>
  </g>
  <g transform="translate(23.375,2)">
   <path fill="#FFF" d="m15,1-9,9,9,9,0-5,30,0,0-8-30,0z" transform="translate(0,962.36218)"/>
  </g>
  <g transform="matrix(-1,0,0,1,96.375,14)">
   <path fill="#FFF" d="m58,13,0,5-30,0,0,8,30,0,0,5,9-9z" transform="matrix(-1,0,0,1,73,950.36218)"/>
  </g>
 </g>
</svg>
